<svg width="407" height="458" viewBox="0 0 407 458" fill="none" xmlns="http://www.w3.org/2000/svg">
<g clip-path="url(#clip0_1_3448)">
<path d="M423.855 312.454C418.369 300.494 410.803 288.716 399.736 275.113C371.834 240.966 363.322 164.822 363.227 164.092C362.849 160.44 360.2 157.427 356.701 156.331C353.107 155.236 349.229 156.24 346.675 158.979C313.382 195.225 327.38 251.192 334.947 273.56C337.028 279.678 339.298 286.89 340.905 294.194C353.2 353.265 329.46 380.016 323.88 385.403C318.488 386.864 314.799 386.133 311.394 382.573C299.666 370.065 295.788 329.071 301.274 275.66C302.41 264.796 302.125 255.027 300.517 245.897C288.948 180.249 246.527 138.14 235.728 123.372C206.029 80.6434 203.002 9.52063 202.907 8.88153C202.813 5.50342 200.827 2.49052 197.705 1.02972C194.679 -0.431084 190.99 -0.248483 188.152 1.66882C138.591 34.4455 142.847 113.42 149.752 157.518C151.36 167.744 154.481 178.152 159.872 191.299C179.072 238.319 156.089 299.033 155.9 299.581C155.71 300.129 155.521 300.585 155.427 301.133C152.495 316.106 147.576 325.054 142.09 325.054C141.523 325.054 140.955 324.962 140.293 324.78C133.578 323.41 130.078 316.472 129.984 310.446C129.605 232.567 49.3041 206.364 48.4529 206.09C44.8587 204.994 40.8862 205.998 38.427 208.829C35.8733 211.659 35.4004 215.585 37.1029 218.872C38.0487 220.789 41.0754 229.189 38.9945 258.861C37.1974 285.521 32.1845 311.907 24.1449 337.197C5.03911 397.82 8.06577 455.248 8.25494 457.987C22.9466 613.477 252.695 640.723 389.047 553.121C403.992 543.535 416.193 532.579 425.178 520.527C475.498 452.965 445.893 361.209 423.855 312.454ZM74.3696 461C74.6534 466.021 70.6809 470.312 65.4788 470.586H64.9113C59.8984 470.586 55.7367 466.843 55.453 462.004C54.6017 448.674 54.7909 434.705 55.8313 419.549C56.2096 414.528 60.7496 410.785 65.9517 411.057C71.1538 411.423 75.1263 415.805 74.748 420.827C73.7066 435.253 73.5184 448.4 74.3696 461ZM79.0033 380.108C78.4358 384.764 74.3687 388.142 69.6395 388.142C69.2612 388.142 68.8828 388.142 68.4099 388.051C63.3024 387.412 59.6137 382.938 60.1812 377.916L64.7212 342.675C65.3833 337.744 70.0178 334.184 75.3145 334.732C80.5166 335.371 84.2054 339.936 83.5433 344.957L79.0033 380.108Z" fill="#3D3D3D"/>
<path d="M359.864 124.907C354.706 124.136 351.169 119.482 351.963 114.503C352.554 110.793 355.971 91.803 365.245 82.2539C368.815 78.5718 374.792 78.38 378.616 81.8394C382.425 85.2851 382.619 91.0634 379.045 94.7456C375.12 98.7893 371.775 110.362 370.658 117.286C369.86 122.212 365.1 125.67 359.864 124.907Z" fill="#3D3D3D"/>
<path d="M15.0515 170.386C13.2412 163.596 8.74278 152.398 4.42505 148.742C0.495112 145.416 0.10259 139.648 3.54731 135.859C6.98353 132.061 12.9546 131.673 16.894 135.012C27.0863 143.638 32.4113 162.214 33.377 165.847C34.67 170.729 31.6225 175.695 26.5698 176.952C21.4056 178.206 16.3388 175.186 15.0515 170.386Z" fill="#3D3D3D"/>
</g>
<defs>
<clipPath id="clip0_1_3448">
<rect width="454" height="458" fill="white"/>
</clipPath>
</defs>
</svg>
