<svg width="452" height="603" viewBox="0 0 452 603" fill="none" xmlns="http://www.w3.org/2000/svg">
<path d="M422.655 312.391C417.169 300.43 409.602 288.653 398.536 275.049C370.634 240.903 362.121 164.758 362.027 164.028C361.649 160.376 359 157.363 355.501 156.267C351.906 155.172 348.029 156.176 345.475 158.915C312.182 195.161 326.18 251.128 333.746 273.497C335.827 279.614 338.097 286.827 339.704 294.131C352 353.202 328.26 379.953 322.679 385.339C317.288 386.8 313.599 386.07 310.194 382.509C298.466 370.001 294.588 329.007 300.074 275.597C301.21 264.732 300.925 254.963 299.317 245.833C287.748 180.185 245.327 138.076 234.528 123.308C204.828 80.5797 201.802 9.45691 201.707 8.8178C201.613 5.4397 199.626 2.4268 196.505 0.965997C193.478 -0.494805 189.79 -0.312204 186.952 1.6051C137.391 34.3818 141.647 113.356 148.551 157.454C150.159 167.68 153.281 178.088 158.672 191.235C177.872 238.255 154.888 298.969 154.699 299.517C154.51 300.065 154.321 300.522 154.226 301.069C151.294 316.043 146.376 324.99 140.89 324.99C140.323 324.99 139.755 324.899 139.093 324.716C132.378 323.347 128.878 316.408 128.783 310.382C128.405 232.503 48.1039 206.3 47.2527 206.026C43.6585 204.93 39.686 205.935 37.2268 208.765C34.6731 211.595 34.2002 215.521 35.9027 218.808C36.8485 220.725 39.8752 229.125 37.7943 258.797C35.9972 285.457 30.9843 311.843 22.9447 337.133C3.83891 397.756 6.86558 455.184 7.05474 457.923C21.7464 613.413 251.495 640.659 387.847 553.058C402.791 543.471 414.993 532.515 423.978 520.463C474.297 452.901 444.693 361.145 422.655 312.391ZM73.1694 460.936C73.4532 465.957 69.4807 470.248 64.2786 470.522H63.7111C58.6982 470.522 54.5365 466.779 54.2528 461.94C53.4015 448.61 53.5907 434.641 54.6311 419.486C55.0094 414.464 59.5494 410.721 64.7515 410.994C69.9536 411.359 73.9261 415.741 73.5478 420.763C72.5064 435.189 72.3182 448.336 73.1694 460.936ZM77.8031 380.044C77.2356 384.7 73.1685 388.078 68.4393 388.078C68.061 388.078 67.6827 388.078 67.2097 387.987C62.1022 387.348 58.4135 382.874 58.981 377.853L63.521 342.611C64.1831 337.681 68.8176 334.12 74.1143 334.668C79.3164 335.307 83.0052 339.872 82.3431 344.893L77.8031 380.044Z" fill="#3D3D3D"/>
<path d="M358.665 124.844C353.507 124.073 349.969 119.419 350.764 114.439C351.355 110.73 354.772 91.7395 364.046 82.1904C367.616 78.5083 373.592 78.3166 377.416 81.7759C381.226 85.2216 381.42 91 377.846 94.6821C373.921 98.7258 370.576 110.298 369.459 117.222C368.661 122.149 363.9 125.606 358.665 124.844Z" fill="#3D3D3D"/>
<path d="M13.8513 170.322C12.041 163.532 7.54258 152.334 3.22485 148.678C-0.705083 145.352 -1.09761 139.584 2.34712 135.795C5.78333 131.997 11.7544 131.609 15.6938 134.948C25.8861 143.574 31.2111 162.151 32.1768 165.783C33.4698 170.665 30.4223 175.631 25.3697 176.888C20.2054 178.142 15.1386 175.123 13.8513 170.322Z" fill="#3D3D3D"/>
</svg>
