<svg aria-hidden="true" style="position: absolute; width: 0; height: 0; overflow: hidden;" version="1.1" xmlns="http://www.w3.org/2000/svg" xmlns:xlink="http://www.w3.org/1999/xlink">
<defs>
<symbol id="line" viewBox="0 0 213 32">
<path fill="" style="" d="M0 4.267h213.333v20.693h-213.333v-20.693z"></path>
</symbol>
<symbol id="ability-comprehend" viewBox="0 0 39 32">
<path fill="" style="" d="M3.047 29.453h12.23c0.618 1.262 1.893 2.115 3.367 2.115 0.005 0 0.009 0 0.014-0h0.772c0.004 0 0.010 0 0.015 0 1.474 0 2.748-0.854 3.356-2.093l0.010-0.022h12.237c1.262-0.001 2.285-1.024 2.286-2.286v-21.905c-0.002-1.262-1.024-2.284-2.286-2.285h-1.234v-1.021c-0.001-0.841-0.683-1.523-1.524-1.523h-26.491c-0.841 0.001-1.522 0.682-1.523 1.523v1.021h-1.227c-1.262 0.001-2.285 1.023-2.287 2.285v21.905c0.001 1.262 1.024 2.285 2.287 2.286h0zM32.287 24.751h-12.477v-17.705c2.884 0.377 5.12 2.845 5.12 5.831v0.687l-0.18-0.040c-0.049-0.011-0.106-0.018-0.164-0.018-0.363 0-0.666 0.253-0.743 0.593l-0.001 0.005-1.213 5.52c-0.011 0.049-0.018 0.105-0.018 0.163 0 0.363 0.254 0.666 0.593 0.743l0.005 0.001 2.621 0.578c0.135 0.029 0.273 0.043 0.411 0.043 0.922 0 1.707-0.631 1.908-1.535l0.701-3.192c0.029-0.125 0.045-0.269 0.045-0.417 0-0.928-0.648-1.706-1.516-1.904l-0.013-0.003-0.912-0.201v-1.023c0-3.827-2.917-6.987-6.645-7.371v-3.551h12.48l-0.001 22.796zM25.167 15.177l1.871 0.412c0.234 0.052 0.377 0.275 0.325 0.508l-0.701 3.191c-0.051 0.231-0.306 0.374-0.507 0.331l-1.873-0.413 0.886-4.029zM5.798 1.955h12.487v3.55c-3.731 0.381-6.651 3.542-6.651 7.372v1.022l-0.913 0.202c-0.517 0.115-0.947 0.425-1.219 0.846l-0.005 0.008c-0.193 0.295-0.307 0.657-0.307 1.045 0 0.15 0.017 0.297 0.050 0.437l-0.003-0.013 0.701 3.189c0.199 0.887 0.98 1.539 1.913 1.539 0.146 0 0.289-0.016 0.426-0.046l-0.013 0.002 2.61-0.577c0.344-0.078 0.598-0.381 0.598-0.744 0-0.058-0.006-0.114-0.019-0.168l0.001 0.005-1.213-5.519c-0.077-0.345-0.38-0.598-0.743-0.598-0.059 0-0.116 0.007-0.171 0.019l0.005-0.001-0.173 0.038v-0.685c0-2.988 2.24-5.458 5.127-5.832v17.707h-12.487v-22.797zM12.916 15.177l0.887 4.029-1.863 0.411c-0.027 0.006-0.058 0.009-0.089 0.009-0.205 0-0.377-0.142-0.421-0.334l-0.001-0.003-0.702-3.196c-0.007-0.028-0.011-0.060-0.011-0.094 0-0.084 0.025-0.161 0.067-0.227l-0.001 0.002c0.061-0.094 0.154-0.161 0.264-0.186l0.003-0.001 1.867-0.412zM2.285 5.262c0-0.42 0.342-0.762 0.762-0.762h1.227v20.251c0.001 0.841 0.683 1.523 1.524 1.524h26.491c0.841-0.001 1.523-0.682 1.524-1.523v-20.252h1.234c0.42 0 0.762 0.342 0.762 0.762v21.905c0 0.42-0.341 0.762-0.762 0.762h-12.754c-0.335 0-0.631 0.219-0.729 0.539-0.285 0.92-1.129 1.577-2.126 1.577-0.003 0-0.006 0-0.009-0h-0.772c-0.001 0-0.002 0-0.003 0-1.002 0-1.849-0.661-2.13-1.571l-0.004-0.016c-0.101-0.31-0.388-0.529-0.725-0.529h-12.747c-0.421 0-0.763-0.342-0.763-0.762v-21.905z"></path>
</symbol>
<symbol id="adapted-autors-advantages" viewBox="0 0 31 32">
<path fill="#ff6b09" style="fill: var(--color1, #ff6b09)" d="M7.953 23.273h12.362c0.061-1.41-0.040-3.749-0.907-4.862l-0.031-0.040-1.894-0.951c0.041-0.139 0.062-0.266 0.070-0.359 0.009-0.112-0.006-0.218-0.046-0.313-0.313-0.748-0.974-1.141-1.338-1.309 0.111-0.223 0.182-0.463 0.217-0.708 0.211-0.060 0.372-0.226 0.425-0.435l0.001-0.004 0.221-0.898c0.012-0.044 0.018-0.095 0.018-0.148 0-0.116-0.033-0.225-0.089-0.317l0.002 0.003c-0.037-0.060-0.082-0.111-0.135-0.153l-0.001-0.001c0.623-1.416-0.421-2.751-0.478-2.822-1.131-1.222-2.559-0.994-2.634-0.98-2.062 0.431-2.857 2.011-2.408 3.864-0.098 0.107-0.157 0.251-0.157 0.408 0 0.052 0.006 0.102 0.019 0.15l-0.001-0.004 0.222 0.899c0.054 0.216 0.218 0.378 0.423 0.437 0.066 0.456 0.256 0.86 0.534 1.185l-0.003-0.003v0.712c-2.958 1.515-1.084 0.548-3.454 1.748-0.005 0.022-1.112 1.199-0.948 4.688l0.010 0.213zM19.885 22.826h-2.034v-0.854l1.346-3.081c0.674 1.119 0.699 3.255 0.689 3.935zM17.109 17.023c-0.078 0.902-0.573 0.63-0.878 1.324-0.24-0.264-0.312-0.581-0.248-0.92 0.117-0.622-0.263-0.807-0.169-1.461l0.014-0.015v-0.002c0.008-0.009 0.083-0.098 0.105-0.126 0.805 0.351 1.193 1.003 1.177 1.2zM12.79 16.314c0.366 0.258 0.821 0.413 1.312 0.413 0.469 0 0.906-0.141 1.269-0.383l-0.008 0.005c0.051 0.514 0.252 0.617 0.181 0.995-0.012 0.059-0.020 0.13-0.025 0.203l-0 0.005-1.386 1.562-1.771-1.997 0.428-0.223v-0.579zM12.233 14.403v-2.388c0.215-0.399 0.51-0.688 0.875-0.862 0.978 0.554 2.105 1.38 2.86 2.212-0.001 1.059 0.003 1.062-0.004 1.149l-0.001 0.006c-0.059 0.962-0.849 1.759-1.863 1.759-0.986 0-1.804-0.774-1.863-1.768-0.002-0.029-0.004-0.063-0.004-0.097 0-0.004 0-0.007 0-0.011v0.001zM11.957 17.332l2.177 2.454 1.462-1.647c0.033 0.096 0.080 0.187 0.134 0.275l-1.595 1.995-2.378-2.975 0.202-0.102zM16.414 14.043v-0.691l0.166-0.191c0.009 0.35 0.047-0.063-0.166 0.882zM13.798 9.415c0.088 0.006 1.276-0.181 2.215 0.833 0.037 0.046 0.801 1.031 0.494 2.108-0.105-0.479-0.288-1.093-0.578-1.386l-0.316 0.315c0.286 0.289 0.474 1.171 0.545 1.628-1.311-1.372-3.002-2.24-3.025-2.254-0.085 0.053-0.801 0.189-1.32 1.199l-0.025 0.048v0.742l-0.066 0.001c-0.33-1.594 0.302-2.861 2.076-3.233zM11.675 13.108l0.113 0.456v0.479l-0.187-0.756c-0.027-0.113 0.056-0.156 0.074-0.178zM11.348 17.638l2.786 3.485 1.886-2.358c0.205 0.184 0.304 0.21 0.738 0.433l-0.147-0.498c-0.037-0.126 0.11-0.329 0.199-0.422 0.2-0.11 0.365-0.262 0.485-0.446l0.003-0.005 1.538 0.772-1.431 3.277v0.948h-6.543v-0.948l-1.432-3.277 1.917-0.962zM9.071 18.891l1.346 3.080v0.854h-2.034c-0.010-0.68 0.015-2.815 0.689-3.934z"></path>
<path fill="none" stroke="#ff6b09" style="stroke: var(--color1, #ff6b09)" stroke-linejoin="miter" stroke-linecap="butt" stroke-miterlimit="4" stroke-width="0.6154" d="M31.077 4.615v-4.308h-30.769v31.385h30.769v-4.308"></path>
</symbol>

<symbol id="financial-guarantee" viewBox="0 0 31 32">
<path fill="#FF6B09" style="fill: var(--color1, #FF6B09)" d="M6.947 14.542c0 0.23-0.344 0.23-0.344 0 0-4.888 3.907-8.852 8.725-8.852 4.82 0 8.725 3.964 8.725 8.852 0 0.23-0.342 0.23-0.342 0 0-3.304-5.351-3.306-5.351 0 0 0.23-0.352 0.23-0.352 0 0-3.295-5.36-3.295-5.36 0 0 0.23-0.352 0.23-0.352 0 0-3.289-5.349-3.312-5.349 0zM12.327 13.259c0.093-1.902 0.387-3.607 0.816-4.909 0.342-1.034 0.774-1.82 1.265-2.261-3.679 0.407-6.657 3.237-7.322 6.906 1.267-1.854 4.192-1.705 5.242 0.263zM17.981 13.173c-0.095-1.828-0.381-3.465-0.793-4.712-1.063-3.228-2.657-3.228-3.72 0-0.412 1.248-0.696 2.884-0.793 4.712 1.143-1.971 4.163-1.971 5.306 0zM23.571 12.996c-0.663-3.669-3.642-6.499-7.322-6.906 0.492 0.441 0.923 1.227 1.265 2.261 0.428 1.302 0.723 3.007 0.816 4.909 1.057-1.979 3.99-2.096 5.242-0.263z"></path>
<path fill="#FF6B09" style="fill: var(--color1, #FF6B09)" d="M14.183 18.592v-1.797c-0.319 0.215-0.571 0.548-0.571 0.953 0 0.395 0.255 0.656 0.571 0.844zM14.527 19.15c-0.612-0.284-1.256-0.617-1.256-1.402 0-0.811 0.608-1.216 1.256-1.52v2.922z"></path>
<path fill="#FF6B09" style="fill: var(--color1, #FF6B09)" d="M16.473 21.304v1.818c0.323-0.217 0.577-0.552 0.577-0.957 0-0.399-0.26-0.669-0.577-0.861zM16.131 20.744c0.614 0.288 1.263 0.631 1.263 1.421 0 0.813-0.612 1.218-1.263 1.519v-2.94z"></path>
<path fill="#FF6B09" style="fill: var(--color1, #FF6B09)" d="M16.473 14.749c1.409 0.33 2.857 1.4 2.857 2.999 0 1.369-2.28 1.319-2.28 0 0-0.408-0.253-0.742-0.577-0.957v2.558c1.304 0.433 2.861 1.208 2.861 2.817 0 1.601-1.448 2.668-2.861 2.997-0.006 1.523-2.286 1.521-2.29-0.002-0.803-0.188-1.502-0.568-2.006-1.072-0.529-0.531-0.842-1.197-0.842-1.922 0-1.348 2.278-1.348 2.278 0 0 0.403 0.251 0.736 0.571 0.951v-2.556c-1.293-0.424-2.859-1.222-2.859-2.817 0-1.601 1.448-2.668 2.859-2.997 0.006-1.523 2.286-1.521 2.29 0.002zM14.527 14.753v0.278c-1.341 0.27-2.861 1.141-2.861 2.712 0 1.511 1.668 2.188 2.861 2.562v3.377c-0.645-0.299-1.256-0.702-1.256-1.517 0-0.89-1.594-0.89-1.594 0 0 0.629 0.276 1.21 0.742 1.674 0.591 0.593 1.308 0.876 2.109 1.037v0.28c0 1.072 1.605 1.072 1.605 0v-0.278c1.345-0.272 2.859-1.143 2.859-2.712 0-1.525-1.664-2.182-2.859-2.564v-3.375c0.647 0.299 1.263 0.702 1.263 1.521 0 0.867 1.592 0.903 1.592 0 0-1.569-1.512-2.443-2.855-2.714v-0.28c0-1.072-1.605-1.072-1.605 0z"></path>
<path fill="none" stroke="#FF6B09" style="stroke: var(--color1, #FF6B09)" stroke-linejoin="miter" stroke-linecap="butt" stroke-miterlimit="4" stroke-width="1.0159" d="M30.387 4.781v-4.244h-29.879v30.918h29.879v-4.244"></path>
</symbol>

<symbol id="modern-teach" viewBox="0 0 31 32">
<path fill="#FF6B09" style="fill: var(--color1, #FF6B09)" d="M24.717 5.091h-10.247c-0.667 0-1.21 0.55-1.21 1.227v4.303l-7.613 3.242c-0.086 0.037-0.145 0.119-0.151 0.214s0.040 0.185 0.12 0.234l0.971 0.589v6.282c-0.497 0.115-0.869 0.566-0.869 1.105v0.605c0 0.139 0.111 0.252 0.248 0.252h1.739c0.137 0 0.248-0.113 0.248-0.252v-0.605c0-0.539-0.373-0.989-0.87-1.104v-5.981l0.768 0.466c-0.024 0.18-0.003-0.313-0.011 2.925 0 1.064 2.687 1.634 5.421 1.667v4.902c0 0.253 0.076 0.489 0.207 0.684 0.217 0.326 0.585 0.541 1.002 0.541h10.247c0.666 0 1.209-0.55 1.209-1.226 0 0.034-0.001-1.038 0-18.843 0-0.668-0.544-1.227-1.208-1.227zM7.456 22.287v0.354h-1.243v-0.354c0-0.349 0.278-0.632 0.62-0.632 0.343 0 0.623 0.284 0.623 0.632zM24.717 25.883h-10.247c-0.246 0-0.463-0.126-0.592-0.318-0.077-0.115-0.122-0.254-0.122-0.404v-1.699h11.672v1.7c0 0.394-0.324 0.721-0.711 0.721zM25.428 22.958h-11.672v-2.698c1.335-0.015 5.424-0.314 5.424-1.669-0.001-2.034 0.004-2.859-0.006-2.928l2.226-1.353c0.080-0.049 0.126-0.139 0.12-0.234s-0.065-0.177-0.151-0.214l-7.613-3.242v-2.101h11.672v14.438zM13.508 16.922c-1.375 0-4.023 0.18-5.173 0.942 0.007-2.331-0.080-2.179 0.203-2.377 0.715-0.534 2.758-0.906 4.97-0.906 0.965 0 5.176 0.269 5.176 1.174v2.11c-1.161-0.769-3.795-0.943-5.176-0.943zM13.756 6.318c0-0.399 0.32-0.723 0.713-0.723h10.247c0.393 0 0.712 0.329 0.712 0.723v1.7h-11.672v-1.699zM13.508 11.061l7.217 3.073-1.788 1.086c-0.951-0.957-4.096-1.142-5.429-1.142-1.335 0-4.48 0.186-5.429 1.142l-1.789-1.086 7.218-3.073zM8.335 18.592c0-0.407 1.777-1.167 5.173-1.167 3.399 0 5.176 0.76 5.176 1.167s-1.778 1.167-5.176 1.167c-3.396 0-5.173-0.76-5.173-1.167z"></path>
<path fill="#FF6B09" style="fill: var(--color1, #FF6B09)" d="M19.593 23.841c-0.452 0-0.82 0.373-0.82 0.832s0.368 0.832 0.82 0.832c0.452 0 0.82-0.373 0.82-0.832s-0.368-0.832-0.82-0.832zM19.593 25.002c-0.179 0-0.324-0.148-0.324-0.329s0.145-0.329 0.324-0.329c0.179 0 0.324 0.147 0.324 0.329s-0.145 0.329-0.324 0.329z"></path>
<path fill="#FF6B09" style="fill: var(--color1, #FF6B09)" d="M20.539 6.555h-1.891v0.503h1.891v-0.503z"></path>
<path fill="none" stroke="#FF6B09" style="stroke: var(--color1, #FF6B09)" stroke-linejoin="miter" stroke-linecap="butt" stroke-miterlimit="4" stroke-width="1.0159" d="M30.387 4.781v-4.244h-29.879v30.918h29.879v-4.244"></path>
</symbol>


<symbol id="adapted-autors" viewBox="0 0 31 32">
<path fill="#FF6B09" style="fill: var(--color1, #FF6B09)" d="M7.046 26.16c2.185 0 14.824 0 17.006 0 0.084-1.97-0.055-5.238-1.247-6.793l-0.043-0.056-2.606-1.329c0.057-0.194 0.084-0.371 0.096-0.502 0.013-0.157-0.008-0.304-0.063-0.437-0.43-1.045-1.339-1.594-1.84-1.829 0.152-0.312 0.251-0.647 0.298-0.989 0.283-0.081 0.511-0.309 0.586-0.613l0.304-1.255c0.054-0.221 0.020-0.451-0.096-0.646-0.050-0.084-0.114-0.155-0.187-0.216 0.858-1.978-0.579-3.843-0.657-3.941-1.555-1.708-3.52-1.389-3.624-1.37-2.836 0.603-3.93 2.81-3.312 5.399-0.183 0.206-0.26 0.493-0.192 0.774l0.306 1.256c0.074 0.302 0.3 0.529 0.581 0.611 0.087 0.627 0.348 1.194 0.732 1.65v0.995c-4.069 2.116-1.491 0.766-4.752 2.442-0.006 0.031-1.53 1.676-1.304 6.55l0.014 0.298zM23.461 25.534h-2.799v-1.194l1.851-4.304c0.927 1.563 0.962 4.548 0.948 5.498zM19.641 17.427c-0.108 1.26-0.788 0.879-1.208 1.85-0.33-0.369-0.43-0.811-0.341-1.285 0.16-0.87-0.362-1.128-0.233-2.041l0.020-0.021v-0.003c0.011-0.013 0.114-0.137 0.144-0.177 1.107 0.49 1.64 1.402 1.619 1.677zM13.701 16.437c0.514 0.362 1.135 0.576 1.802 0.576 0.629 0 1.226-0.186 1.737-0.528 0.071 0.718 0.347 0.862 0.249 1.391-0.018 0.098-0.028 0.195-0.034 0.29l-1.906 2.182-2.437-2.79 0.588-0.312v-0.809zM12.935 13.767v-1.21c0-0.445 0-2.213 0-2.125 0.297-0.557 0.701-0.961 1.204-1.204 1.346 0.774 2.895 1.928 3.935 3.090-0.001 1.48 0.004 1.484-0.006 1.605l-0.001 0.008c-0.081 1.344-1.169 2.457-2.564 2.457-1.356 0-2.482-1.081-2.563-2.47-0.004-0.050-0.005-0.1-0.005-0.151zM12.555 17.859l2.994 3.428 2.010-2.301c0.046 0.134 0.11 0.261 0.184 0.384l-2.194 2.787-3.272-4.156 0.278-0.142zM18.686 13.264v-0.966c0.027-0.031 0.256-0.297 0.229-0.266 0.013 0.489 0.065-0.088-0.229 1.232zM15.087 6.799c0.122 0.008 1.756-0.252 3.047 1.164 0.051 0.065 1.102 1.44 0.68 2.945-0.145-0.67-0.396-1.528-0.795-1.937l-0.435 0.44c0.393 0.404 0.651 1.636 0.75 2.274-1.803-1.917-4.13-3.13-4.162-3.15-0.117 0.074-1.101 0.264-1.816 1.675l-0.034 0.068v1.037c-0.031 0-0.121 0.001-0.090 0.001-0.454-2.227 0.416-3.997 2.855-4.516zM12.167 11.959l0.155 0.637v0.669l-0.257-1.057c-0.038-0.158 0.077-0.217 0.102-0.249zM11.716 18.287l3.833 4.869 2.594-3.294c0.282 0.256 0.418 0.293 1.016 0.605l-0.202-0.695c-0.051-0.176 0.151-0.459 0.274-0.59 0.273-0.151 0.501-0.365 0.671-0.63l2.116 1.079-1.969 4.578v1.325h-9v-1.325l-1.97-4.578 2.637-1.344zM8.584 20.038l1.851 4.303v1.194h-2.799c-0.014-0.95 0.021-3.933 0.947-5.497z"></path>
<path fill="none" stroke="#FF6B09" style="stroke: var(--color1, #FF6B09)" stroke-linejoin="miter" stroke-linecap="butt" stroke-miterlimit="4" stroke-width="1.0159" d="M30.387 4.771v-4.248h-29.879v30.951h29.879v-4.248"></path>
</symbol>

<symbol id="burger-menu" viewBox="0 0 48 32">
<path stroke-linejoin="miter" stroke-linecap="butt" stroke-miterlimit="4" stroke-width="4.5714" d="M0 2.286h48M0 16h48M0 29.714h48"></path>
<path fill="" style="" d="M7.953 23.273h12.362c0.061-1.41-0.040-3.749-0.907-4.862l-0.031-0.040-1.894-0.951c0.041-0.139 0.062-0.266 0.070-0.359 0.009-0.112-0.006-0.218-0.046-0.313-0.313-0.748-0.974-1.141-1.338-1.309 0.111-0.223 0.182-0.463 0.217-0.708 0.211-0.060 0.372-0.226 0.425-0.435l0.001-0.004 0.221-0.898c0.012-0.044 0.018-0.095 0.018-0.148 0-0.116-0.033-0.225-0.089-0.317l0.002 0.003c-0.037-0.060-0.082-0.111-0.135-0.153l-0.001-0.001c0.623-1.416-0.421-2.751-0.478-2.822-1.131-1.222-2.559-0.994-2.634-0.98-2.062 0.431-2.857 2.011-2.408 3.864-0.098 0.107-0.157 0.251-0.157 0.408 0 0.052 0.006 0.102 0.019 0.15l-0.001-0.004 0.222 0.899c0.054 0.216 0.218 0.378 0.423 0.437 0.066 0.456 0.256 0.86 0.534 1.185l-0.003-0.003v0.712c-2.958 1.515-1.084 0.548-3.454 1.748-0.005 0.022-1.112 1.199-0.948 4.688l0.010 0.213zM19.885 22.826h-2.034v-0.854l1.346-3.081c0.674 1.119 0.699 3.255 0.689 3.935zM17.109 17.023c-0.078 0.902-0.573 0.63-0.878 1.324-0.24-0.264-0.312-0.581-0.248-0.92 0.117-0.622-0.263-0.807-0.169-1.461l0.014-0.015v-0.002c0.008-0.009 0.083-0.098 0.105-0.126 0.805 0.351 1.193 1.003 1.177 1.2zM12.79 16.314c0.366 0.258 0.821 0.413 1.312 0.413 0.469 0 0.906-0.141 1.269-0.383l-0.008 0.005c0.051 0.514 0.252 0.617 0.181 0.995-0.012 0.059-0.020 0.13-0.025 0.203l-0 0.005-1.386 1.562-1.771-1.997 0.428-0.223v-0.579zM12.233 14.403v-2.388c0.215-0.399 0.51-0.688 0.875-0.862 0.978 0.554 2.105 1.38 2.86 2.212-0.001 1.059 0.003 1.062-0.004 1.149l-0.001 0.006c-0.059 0.962-0.849 1.759-1.863 1.759-0.986 0-1.804-0.774-1.863-1.768-0.002-0.029-0.004-0.063-0.004-0.097 0-0.004 0-0.007 0-0.011v0.001zM11.957 17.332l2.177 2.454 1.462-1.647c0.033 0.096 0.080 0.187 0.134 0.275l-1.595 1.995-2.378-2.975 0.202-0.102zM16.414 14.043v-0.691l0.166-0.191c0.009 0.35 0.047-0.063-0.166 0.882zM13.798 9.415c0.088 0.006 1.276-0.181 2.215 0.833 0.037 0.046 0.801 1.031 0.494 2.108-0.105-0.479-0.288-1.093-0.578-1.386l-0.316 0.315c0.286 0.289 0.474 1.171 0.545 1.628-1.311-1.372-3.002-2.24-3.025-2.254-0.085 0.053-0.801 0.189-1.32 1.199l-0.025 0.048v0.742l-0.066 0.001c-0.33-1.594 0.302-2.861 2.076-3.233zM11.675 13.108l0.113 0.456v0.479l-0.187-0.756c-0.027-0.113 0.056-0.156 0.074-0.178zM11.348 17.638l2.786 3.485 1.886-2.358c0.205 0.184 0.304 0.21 0.738 0.433l-0.147-0.498c-0.037-0.126 0.11-0.329 0.199-0.422 0.2-0.11 0.365-0.262 0.485-0.446l0.003-0.005 1.538 0.772-1.431 3.277v0.948h-6.543v-0.948l-1.432-3.277 1.917-0.962zM9.071 18.891l1.346 3.080v0.854h-2.034c-0.010-0.68 0.015-2.815 0.689-3.934z"></path>
<path fill="" stroke="#ff6b09" style="stroke: var(--color1, #ff6b09)" stroke-linejoin="miter" stroke-linecap="butt" stroke-miterlimit="4" stroke-width="0.6154" d="M31.077 4.615v-4.308h-30.769v31.385h30.769v-4.308"></path>
</symbol>
<symbol id="menu" viewBox="0 0 48 32">
<path d="M0 5.333v-5.333h48v5.333h-48zM0 18.667h48v-5.333h-48v5.333zM0 32h48v-5.333h-48v5.333z"></path>
</symbol>
<symbol id="adapted-program-preparation" viewBox="0 0 31 32">
<path fill="" style="" d="M30.151 4.961l-0.001-0.003c-0.015-0.035-0.035-0.065-0.060-0.090v0l-4.806-4.806c-0.012-0.012-0.025-0.023-0.039-0.032l-0.001-0.001-0.009-0.005c-0.010-0.007-0.022-0.013-0.034-0.019l-0.002-0.001c-0.005-0.001-0.008-0.003-0.012-0.004-0.029-0.012-0.063-0.019-0.098-0.020h-0l-0.005-0.001h-21.171c-0.157 0-0.284 0.127-0.284 0.284v29.311c0 0.019 0.002 0.037 0.006 0.055 0.001 0.008 0.005 0.015 0.007 0.023l0.009 0.030 0.013 0.025c0.005 0.007 0.008 0.016 0.013 0.023 0.010 0.015 0.021 0.028 0.032 0.040l-0-0 0.003 0.003 2.164 2.165c0.051 0.052 0.122 0.083 0.201 0.083s0.15-0.032 0.201-0.083v0l1.965-1.964 1.963 1.964c0.051 0.052 0.122 0.084 0.201 0.084s0.15-0.032 0.201-0.084l1.963-1.963 1.965 1.963c0.051 0.052 0.123 0.083 0.201 0.083s0.15-0.032 0.201-0.083v0l1.963-1.963 1.963 1.963c0.051 0.051 0.122 0.083 0.201 0.083s0.149-0.032 0.201-0.083v0l1.965-1.964 1.963 1.964c0.051 0.052 0.122 0.084 0.201 0.084s0.15-0.032 0.201-0.084l1.963-1.963 1.965 1.963c0.051 0.051 0.122 0.083 0.201 0.083s0.149-0.032 0.201-0.083v0l2.165-2.165c0.005-0.004 0.007-0.009 0.011-0.013 0.008-0.009 0.017-0.019 0.023-0.029 0.007-0.009 0.011-0.020 0.017-0.030l0.009-0.019c0.006-0.013 0.009-0.027 0.012-0.040 0.001-0.004 0.004-0.008 0.005-0.013 0.004-0.017 0.006-0.037 0.006-0.057v-24.503c-0.001-0.039-0.009-0.077-0.023-0.111l0.001 0.002zM25.367 0.949l3.835 3.835h-3.835v-3.835zM29.604 29.456l-1.88 1.88-1.965-1.964c-0.051-0.051-0.122-0.083-0.201-0.083s-0.149 0.032-0.201 0.083v0l-1.964 1.964-1.963-1.964c-0.051-0.051-0.122-0.083-0.201-0.083s-0.149 0.032-0.201 0.083v0l-1.965 1.964-1.963-1.964c-0.051-0.052-0.122-0.084-0.201-0.084s-0.15 0.032-0.201 0.084v0l-1.963 1.964-1.965-1.964c-0.051-0.051-0.122-0.083-0.201-0.083s-0.149 0.032-0.201 0.083v0l-1.963 1.964-1.964-1.964c-0.052-0.051-0.123-0.083-0.201-0.083s-0.149 0.032-0.201 0.083v0l-1.965 1.964-1.88-1.88v-28.909h20.603v4.522c0 0.157 0.127 0.284 0.284 0.284h4.521v24.103z"></path>
<path fill="" style="" d="M6.314 3.234h9.303c0.157 0 0.284-0.127 0.284-0.284s-0.127-0.284-0.284-0.284h-9.304c-0.157 0-0.284 0.127-0.284 0.284s0.127 0.284 0.284 0.284v0zM6.314 4.991h14.919c0.157 0 0.284-0.127 0.284-0.284s-0.127-0.284-0.284-0.284v0h-14.919c-0.157 0-0.284 0.127-0.284 0.284s0.127 0.284 0.284 0.284v0zM6.030 6.568v9.199c0 0.157 0.127 0.284 0.284 0.284h21.173c0.157 0 0.284-0.127 0.284-0.284v-9.199c0-0.157-0.127-0.284-0.284-0.284v0h-21.173c-0.157 0-0.284 0.127-0.284 0.284v0zM12.309 6.852h14.893v2.445h-14.893v-2.445zM12.309 9.865h14.893v2.444h-14.893v-2.444zM12.309 12.877h14.893v2.605h-14.893v-2.605zM6.598 6.852h5.143v2.445h-5.143v-2.445zM6.598 9.865h5.143v2.444h-5.143v-2.444zM6.598 12.877h5.143v2.605h-5.143v-2.605zM27.487 17.329h-21.173c-0.157 0-0.284 0.127-0.284 0.284v0 9.198c0 0.157 0.127 0.284 0.284 0.284s0.284-0.127 0.284-0.284v-2.889h5.142v2.889c0 0.157 0.127 0.284 0.284 0.284s0.284-0.127 0.284-0.284v0-2.889h14.893v2.889c0 0.157 0.127 0.284 0.284 0.284s0.284-0.127 0.284-0.284v0-9.198c0-0 0-0.001 0-0.001 0-0.156-0.127-0.283-0.283-0.283-0 0-0 0-0.001 0h0zM11.74 23.353h-5.141v-2.443h5.143v2.443zM11.74 20.341h-5.141v-2.444h5.143v2.444zM27.202 23.353h-14.893v-2.443h14.893v2.443zM27.202 20.341h-14.893v-2.444h14.893v2.444zM2.281-0.021c0 0 0 0 0 0-0.157 0-0.284 0.127-0.284 0.284 0 0 0 0 0 0.001v-0 29.31c0 0.157 0.127 0.284 0.284 0.284s0.284-0.127 0.284-0.284v0-29.31c0-0 0-0 0-0.001 0-0.157-0.127-0.284-0.284-0.284-0 0-0 0-0.001 0h0zM0.719-0.021c-0 0-0.001 0-0.001 0-0.157 0-0.284 0.127-0.284 0.284 0 0 0 0 0 0.001v-0 29.31c0 0.157 0.127 0.284 0.284 0.284s0.284-0.127 0.284-0.284v0-29.31c0-0 0-0 0-0.001 0-0.157-0.127-0.284-0.283-0.284h-0z"></path>
</symbol>
<symbol id="check-mark" viewBox="0 0 40 32">
<path fill="" style="" d="M34.458 1.514c-1.485 0.664-2.907 1.475-4.266 2.379-2.731 1.797-5.227 3.936-7.568 6.218-2.291 2.256-4.444 4.63-6.458 7.12l-0.125 0.16c-0.515 0.637-2.822 3.472-2.822 3.472l-9.597-14.382-3.622 10.043 12.976 15.477c1.261-2.552 2.474-5.070 3.664-7.258 0.294-0.557 0.605-1.080 0.901-1.613 0 0 1.523-2.677 1.923-3.35 1.602-2.698 3.333-5.325 5.238-7.821 1.909-2.491 3.984-4.87 6.336-6.96 1.117-1.018 2.342-1.964 3.64-2.807l0.11-0.067c1.331-0.848 2.747-1.59 4.261-2.125-1.574 0.31-3.112 0.848-4.592 1.514z"></path>
</symbol>
<symbol id="classroom-and-online" viewBox="0 0 33 32">
<path fill="" style="" d="M30.175-0.128h-15.746c-1.026 0.001-1.858 0.833-1.859 1.859v6.519l-11.698 4.909c-0.139 0.059-0.235 0.194-0.235 0.352 0 0.138 0.074 0.26 0.184 0.326l0.002 0.001 1.492 0.893v9.516c-0.77 0.181-1.334 0.861-1.335 1.673v0.917c0 0.211 0.17 0.381 0.381 0.381h2.671c0.211 0 0.381-0.171 0.381-0.381v0-0.917c0-0.816-0.573-1.498-1.337-1.673v-9.060l1.18 0.706c-0.036 0.272-0.005-0.474-0.017 4.43 0 1.612 4.129 2.476 8.33 2.525v7.425c0 1.025 0.832 1.856 1.857 1.856 0 0 0.001 0 0.001 0h15.746c1.025-0.001 1.856-0.832 1.857-1.857v-0c0 0.051-0.002-1.573 0-28.539 0-1.012-0.836-1.859-1.856-1.859zM3.652 25.918v0.537h-1.91v-0.537c0-0.528 0.428-0.957 0.953-0.957 0.528 0 0.957 0.43 0.957 0.957zM30.175 31.364h-15.746c-0.378 0-0.711-0.191-0.909-0.481-0.117-0.171-0.187-0.383-0.187-0.61 0-0.001 0-0.001 0-0.002v0-2.574h17.934v2.575c0 0.596-0.497 1.092-1.092 1.092zM31.267 26.935h-17.935v-4.086c2.051-0.023 8.335-0.475 8.335-2.527-0.002-3.080 0.005-4.33-0.010-4.436l3.421-2.049c0.111-0.068 0.184-0.189 0.184-0.326 0-0.157-0.095-0.292-0.23-0.35l-0.002-0.001-11.698-4.91v-3.182h17.935v21.868zM12.951 17.792c-2.113 0-6.181 0.273-7.949 1.427 0.012-3.53-0.123-3.3 0.313-3.6 1.098-0.808 4.238-1.373 7.636-1.373 1.483 0 7.954 0.407 7.954 1.777v3.196c-1.784-1.165-5.832-1.428-7.954-1.428zM13.333 1.731c0.001-0.604 0.491-1.094 1.095-1.094h15.746c0.604 0 1.093 0.498 1.093 1.095v2.574h-17.934v-2.574zM12.952 8.915l11.090 4.655-2.748 1.644c-1.461-1.449-6.294-1.729-8.342-1.729-2.051 0-6.883 0.281-8.342 1.729l-2.749-1.644 11.091-4.655zM5.002 20.321c0-0.616 2.73-1.768 7.949-1.768 5.222 0 7.954 1.151 7.954 1.767s-2.732 1.768-7.954 1.768c-5.219 0-7.949-1.151-7.949-1.768z"></path>
<path fill="" style="" d="M22.301 28.271c-0.694 0-1.26 0.565-1.26 1.26 0 0.696 0.565 1.261 1.26 1.261s1.26-0.565 1.26-1.26c0-0.694-0.565-1.26-1.26-1.26zM22.301 30.030c-0.264-0.014-0.473-0.232-0.473-0.498s0.209-0.484 0.472-0.498l0.001-0c0.275 0 0.498 0.223 0.498 0.498s-0.223 0.498-0.498 0.498v0zM23.755 2.090h-2.907v0.761h2.907v-0.761z"></path>
</symbol>

<symbol id="icon-close" viewBox="0 0 32 32">
<path d="M32 3.223l-3.223-3.223-12.777 12.777-12.777-12.777-3.223 3.223 12.777 12.777-12.777 12.777 3.223 3.223 12.777-12.777 12.777 12.777 3.223-3.223-12.777-12.777 12.777-12.777z"></path>
</symbol>

<symbol id="close-icon" viewBox="0 0 32 32">
<path fill="" stroke="#fff" style="stroke: var(--color2, #fff)" stroke-linejoin="miter" stroke-linecap="butt" stroke-miterlimit="4" stroke-width="3.5556" d="M1.778 30.222l28.444-28.444M30.222 30.222l-28.444-28.444"></path>
</symbol>
<symbol id="financial-guarantee-advantages" viewBox="0 0 31 32">
<path fill="" style="fill: var(--color1, #ff6b09)" d="M7.942 14.958c0 0.165-0.25 0.165-0.25 0 0-3.502 2.84-6.342 6.342-6.342 3.504 0 6.342 2.84 6.342 6.342 0 0.165-0.249 0.165-0.249 0 0-2.367-3.89-2.369-3.89 0 0 0.165-0.256 0.165-0.256 0 0-2.361-3.896-2.361-3.896 0 0 0.165-0.256 0.165-0.256 0 0-2.357-3.888-2.373-3.888 0zM11.853 14.038c0.068-1.362 0.282-2.584 0.593-3.517 0.249-0.742 0.563-1.304 0.919-1.62-2.674 0.292-4.839 2.319-5.323 4.949 0.921-1.328 3.047-1.222 3.811 0.189zM15.963 13.977c-0.069-1.31-0.277-2.482-0.577-3.376-0.772-2.314-1.931-2.314-2.704 0-0.299 0.894-0.506 2.066-0.576 3.376 0.831-1.412 3.026-1.412 3.857 0zM20.027 13.85c-0.482-2.629-2.647-4.657-5.323-4.949 0.358 0.316 0.671 0.879 0.919 1.62 0.311 0.933 0.526 2.154 0.593 3.517 0.768-1.418 2.9-1.502 3.811-0.189zM13.202 17.86v-1.288c-0.232 0.154-0.415 0.392-0.415 0.683 0 0.283 0.186 0.47 0.415 0.605zM13.452 18.26c-0.445-0.204-0.913-0.442-0.913-1.005 0-0.581 0.442-0.871 0.913-1.089v2.094zM14.867 19.803v1.303c0.235-0.156 0.419-0.395 0.419-0.686 0-0.286-0.189-0.479-0.419-0.617zM14.619 19.402c0.446 0.206 0.918 0.452 0.918 1.018 0 0.582-0.445 0.873-0.918 1.089v-2.107z"></path>
<path fill="" style="fill: var(--color1, #ff6b09)" d="M14.867 15.106c1.024 0.237 2.077 1.003 2.077 2.149 0 0.981-1.658 0.945-1.658 0 0-0.292-0.184-0.531-0.419-0.686v1.833c0.948 0.31 2.080 0.865 2.080 2.018 0 1.147-1.053 1.912-2.080 2.147-0.004 1.091-1.662 1.090-1.665-0.002-0.584-0.135-1.092-0.407-1.458-0.768-0.385-0.381-0.612-0.858-0.612-1.378 0-0.966 1.656-0.966 1.656 0 0 0.289 0.182 0.527 0.415 0.682v-1.831c-0.94-0.304-2.078-0.876-2.078-2.018 0-1.147 1.053-1.912 2.078-2.147 0.004-1.091 1.662-1.090 1.665 0.002zM13.452 15.109v0.199c-0.975 0.193-2.080 0.818-2.080 1.943 0 1.083 1.213 1.568 2.080 1.836v2.419c-0.469-0.214-0.914-0.503-0.914-1.087 0-0.638-1.159-0.638-1.159 0 0 0.45 0.201 0.867 0.539 1.199 0.43 0.425 0.951 0.628 1.533 0.743v0.201c0 0.768 1.166 0.768 1.166 0v-0.199c0.978-0.195 2.078-0.819 2.078-1.944 0-1.093-1.21-1.563-2.078-1.837v-2.418c0.47 0.214 0.918 0.503 0.918 1.090 0 0.622 1.157 0.647 1.157 0 0-1.125-1.099-1.75-2.075-1.945v-0.201c0-0.768-1.166-0.768-1.166 0z"></path>
<path fill="none" stroke="#ff6b09" style="stroke: var(--color1, #ff6b09)" stroke-linejoin="miter" stroke-linecap="butt" stroke-miterlimit="4" stroke-width="0.6154" d="M31.077 4.615v-4.308h-30.769v31.385h30.769v-4.308"></path>
</symbol>
<symbol id="fire-in-guarantee" viewBox="0 0 23 32">
<path fill="" style="" d="M21.909 16.593c-0.284-0.636-0.675-1.261-1.247-1.984-1.442-1.813-1.883-5.856-1.888-5.895-0.022-0.194-0.155-0.353-0.334-0.411l-0.003-0.001c-0.045-0.015-0.096-0.023-0.149-0.023-0.146 0-0.277 0.063-0.368 0.163l-0 0c-1.722 1.924-0.997 4.896-0.607 6.084 0.108 0.325 0.225 0.708 0.309 1.097 0.635 3.136-0.593 4.557-0.881 4.843-0.278 0.078-0.469 0.039-0.645-0.149-0.606-0.665-0.806-2.842-0.523-5.678 0.023-0.194 0.036-0.419 0.036-0.647 0-0.33-0.027-0.653-0.080-0.968l0.005 0.034c-0.597-3.486-2.79-5.723-3.349-6.507-1.535-2.269-1.691-6.046-1.696-6.080-0.011-0.261-0.225-0.468-0.488-0.468-0.102 0-0.198 0.032-0.276 0.086l0.002-0.001c-2.562 1.742-2.341 5.936-1.984 8.277 0.082 0.544 0.243 1.095 0.523 1.794 0.992 2.496-0.196 5.722-0.206 5.749-0.011 0.030-0.019 0.053-0.025 0.083-0.151 0.796-0.405 1.27-0.689 1.27-0.033-0.001-0.065-0.006-0.095-0.016l0.002 0.001c-0.348-0.073-0.528-0.441-0.533-0.761-0.019-4.135-4.171-5.527-4.213-5.542-0.045-0.015-0.096-0.023-0.149-0.023-0.147 0-0.279 0.066-0.369 0.169l-0.001 0.001c-0.075 0.084-0.121 0.195-0.121 0.317 0 0.079 0.019 0.153 0.053 0.219l-0.001-0.003c0.049 0.101 0.206 0.547 0.098 2.123-0.102 1.521-0.376 2.939-0.803 4.288l0.035-0.128c-0.987 3.221-0.831 6.271-0.821 6.416 0.759 8.258 12.636 9.705 19.683 5.053 0.772-0.51 1.403-1.091 1.867-1.731 2.603-3.588 1.072-8.461-0.067-11.051zM3.844 24.48c0 0.008 0.001 0.016 0.001 0.025 0 0.259-0.203 0.47-0.458 0.484l-0.001 0h-0.030c-0.001 0-0.002 0-0.003 0-0.258 0-0.469-0.201-0.485-0.454l-0-0.001c-0.017-0.292-0.027-0.634-0.027-0.978 0-0.449 0.017-0.894 0.050-1.334l-0.004 0.059c0.022-0.254 0.234-0.452 0.492-0.452 0.011 0 0.021 0 0.032 0.001l-0.001-0c0.256 0.017 0.456 0.229 0.456 0.487 0 0.011-0 0.022-0.001 0.032l0-0.001c-0.053 0.766-0.064 1.465-0.020 2.133zM4.084 20.185c-0.030 0.242-0.234 0.427-0.482 0.427-0.001 0-0.002 0-0.003 0h0c-0.019 0-0.039 0-0.064-0.005-0.242-0.032-0.427-0.237-0.427-0.486 0-0.018 0.001-0.036 0.003-0.054l-0 0.002 0.235-1.872c0.035-0.241 0.241-0.425 0.489-0.425 0.021 0 0.041 0.001 0.061 0.004l-0.002-0c0.269 0.034 0.459 0.276 0.426 0.543l-0.235 1.867zM18.603 6.634c-0.236-0.036-0.415-0.237-0.415-0.48 0-0.026 0.002-0.051 0.006-0.075l-0 0.003c0.031-0.197 0.207-1.205 0.687-1.713 0.090-0.095 0.216-0.153 0.356-0.153 0.13 0 0.247 0.050 0.335 0.132l-0-0c0.196 0.182 0.207 0.49 0.021 0.685-0.203 0.214-0.375 0.829-0.433 1.197-0.039 0.234-0.24 0.411-0.482 0.411-0.027 0-0.053-0.002-0.078-0.006l0.003 0zM0.779 9.049c-0.094-0.361-0.326-0.956-0.549-1.15-0.102-0.089-0.167-0.219-0.167-0.365 0-0.123 0.046-0.235 0.121-0.32l-0 0c0.090-0.102 0.222-0.166 0.368-0.166 0.124 0 0.237 0.046 0.323 0.121l-0.001-0c0.527 0.459 0.802 1.444 0.852 1.637 0.010 0.036 0.015 0.077 0.015 0.12 0 0.226-0.155 0.416-0.364 0.469l-0.003 0.001c-0.036 0.010-0.078 0.015-0.121 0.015-0.226 0-0.416-0.153-0.473-0.361l-0.001-0.003z"></path>
</symbol>
<symbol id="fire-in-problems" viewBox="0 0 27 32">
<path d="M28.325 21.831c-0.373-0.836-0.887-1.659-1.639-2.609-1.896-2.386-2.474-7.706-2.481-7.757-0.026-0.255-0.206-0.466-0.443-0.542-0.059-0.019-0.127-0.031-0.197-0.031-0.192 0-0.364 0.083-0.484 0.215l-0 0.001c-2.262 2.533-1.311 6.443-0.797 8.006 0.141 0.427 0.296 0.931 0.405 1.442 0.835 4.127-0.778 5.996-1.157 6.373-0.366 0.102-0.617 0.051-0.848-0.198-0.797-0.874-1.060-3.738-0.688-7.47 0.077-0.759 0.058-1.442-0.051-2.080-0.786-4.587-3.668-7.529-4.402-8.561-2.018-2.985-2.224-7.955-2.23-7.999-0.006-0.236-0.141-0.447-0.353-0.549-0.206-0.102-0.456-0.089-0.649 0.045-3.368 2.29-3.078 7.808-2.609 10.889 0.109 0.714 0.321 1.442 0.688 2.36 1.305 3.285-0.257 7.527-0.27 7.566s-0.026 0.070-0.032 0.108c-0.199 1.046-0.533 1.671-0.906 1.671-0.039 0-0.077-0.006-0.122-0.019-0.456-0.096-0.694-0.581-0.7-1.002-0.026-5.441-5.482-7.272-5.54-7.291-0.244-0.077-0.514-0.006-0.681 0.191-0.174 0.198-0.206 0.472-0.090 0.702 0.064 0.134 0.27 0.721 0.128 2.794-0.122 1.863-0.463 3.706-1.009 5.473-1.298 4.236-1.092 8.248-1.080 8.439 0.998 10.864 16.609 12.768 25.873 6.647 1.015-0.67 1.844-1.435 2.455-2.277 3.419-4.721 1.407-11.131-0.090-14.538zM4.579 32.21c0.019 0.351-0.251 0.651-0.604 0.67h-0.039c-0.341 0-0.623-0.262-0.643-0.6-0.058-0.931-0.045-1.907 0.026-2.966 0.026-0.351 0.334-0.612 0.688-0.593 0.354 0.026 0.623 0.332 0.598 0.683-0.071 1.008-0.084 1.927-0.026 2.807zM4.893 26.558c-0.038 0.325-0.315 0.561-0.636 0.561-0.026 0-0.051 0-0.084-0.006-0.347-0.045-0.598-0.357-0.559-0.708l0.308-2.462c0.045-0.344 0.36-0.593 0.72-0.555 0.354 0.045 0.604 0.364 0.559 0.714l-0.308 2.456z"></path>
</symbol>

<symbol id="instagram" viewBox="0 0 32 32">

<path fill="#fff" style="fill: var(--color1, #fff)" d="M0.528 10.029c0.103-0.724 0.181-1.452 0.311-2.171 0.739-4.072 3.622-6.842 7.743-6.984 4.963-0.171 9.941-0.18 14.903-0.001 4.486 0.161 7.735 3.483 7.875 7.971 0.149 4.765 0.149 9.542 0 14.307-0.14 4.488-3.388 7.809-7.875 7.971-4.962 0.179-9.941 0.184-14.903-0.003-4.487-0.169-7.589-3.498-7.889-7.992-0.026-0.389-0.109-0.774-0.166-1.161 0-3.979 0-7.958 0-11.937zM16.004 28.463c2.271 0 4.544 0.068 6.812-0.016 3.556-0.132 5.743-2.254 5.826-5.806 0.103-4.426 0.103-8.859 0-13.286-0.083-3.552-2.272-5.723-5.826-5.799-4.511-0.095-9.028-0.095-13.539 0-3.527 0.074-5.721 2.202-5.817 5.714-0.122 4.482-0.122 8.973 0 13.455 0.096 3.512 2.289 5.591 5.817 5.721 2.239 0.083 4.484 0.016 6.727 0.016z"></path>
<path fill="#fff" style="fill: var(--color1, #fff)" d="M15.999 8.115c-4.355 0-7.885 3.53-7.885 7.885s3.531 7.885 7.885 7.885c4.355 0 7.885-3.53 7.885-7.885s-3.53-7.885-7.885-7.885zM15.999 21.17c-2.856 0-5.17-2.315-5.17-5.171s2.315-5.17 5.171-5.17c2.856 0 5.171 2.315 5.171 5.171s-2.315 5.171-5.171 5.171z"></path>
<path fill="#fff" style="fill: var(--color1, #fff)" d="M26.222 7.755c0 1.036-0.84 1.876-1.876 1.876s-1.876-0.84-1.876-1.876c0-1.036 0.84-1.876 1.876-1.876s1.876 0.84 1.876 1.876z"></path>


</symbol>

<symbol id="logo" viewBox="0 0 91 32">
<path fill="#111518" style="fill: var(--color4, #111518)" d="M13.608 4.836v12.942h-3.661v-5.047h-4.992v5.047h-3.661v-12.942h3.661v4.863h4.992v-4.863h3.661zM27.006 12.786c0 0.025-0.018 0.314-0.055 0.869h-7.285c0.148 0.518 0.432 0.918 0.851 1.202 0.432 0.271 0.967 0.407 1.609 0.407 0.481 0 0.894-0.068 1.239-0.203 0.358-0.135 0.715-0.358 1.072-0.666l1.849 1.923c-0.974 1.084-2.397 1.627-4.271 1.627-1.171 0-2.2-0.222-3.088-0.666s-1.577-1.060-2.071-1.849c-0.481-0.789-0.721-1.683-0.721-2.681 0-0.986 0.235-1.867 0.703-2.644 0.483-0.786 1.154-1.415 1.951-1.836l0.027-0.013c0.838-0.444 1.781-0.666 2.829-0.666 0.998 0 1.904 0.21 2.718 0.629 0.811 0.406 1.466 1.020 1.911 1.772l0.012 0.021c0.481 0.777 0.721 1.701 0.721 2.773zM21.663 10.086c-0.542 0-0.998 0.154-1.368 0.462-0.357 0.308-0.585 0.727-0.684 1.257h4.105c-0.098-0.53-0.333-0.949-0.703-1.257-0.357-0.308-0.807-0.462-1.35-0.462zM29.365 4.059h3.513v13.719h-3.513v-13.719zM35.9 4.059h3.513v13.719h-3.513v-13.719z"></path>
<path fill="#ff6b09" style="fill: var(--color1, #ff6b09)" d="M5.547 26.596v3.982h-0.922v-1.633h-1.809v1.633h-0.922v-3.982h0.922v1.57h1.809v-1.57h0.922zM10.596 29.838v0.74h-3.083v-3.982h3.009v0.74h-2.094v0.865h1.849v0.717h-1.849v0.922h2.167zM12.353 26.596h0.922v3.231h1.997v0.751h-2.918v-3.982zM16.811 26.596h0.922v3.231h1.997v0.751h-2.918v-3.982zM21.268 26.596h0.922v3.982h-0.922v-3.982zM25.467 30.646c-0.314 0-0.62-0.042-0.916-0.125-0.292-0.087-0.527-0.199-0.705-0.336l0.313-0.694c0.171 0.125 0.374 0.225 0.609 0.302s0.471 0.114 0.705 0.114c0.262 0 0.455-0.038 0.58-0.114 0.125-0.080 0.188-0.184 0.188-0.313 0-0.001 0-0.003 0-0.005 0-0.093-0.044-0.176-0.113-0.228l-0.001-0c-0.080-0.068-0.175-0.121-0.279-0.152l-0.006-0.001c-0.115-0.039-0.272-0.082-0.431-0.118l-0.036-0.007c-0.299-0.068-0.548-0.142-0.79-0.231l0.045 0.014c-0.199-0.076-0.368-0.194-0.499-0.346l-0.001-0.001c-0.137-0.159-0.205-0.372-0.205-0.637 0-0.231 0.063-0.44 0.188-0.626 0.125-0.19 0.313-0.339 0.563-0.449 0.255-0.11 0.563-0.165 0.927-0.165 0.255 0 0.503 0.031 0.745 0.091s0.455 0.148 0.637 0.262l-0.284 0.7c-0.368-0.208-0.735-0.313-1.104-0.313-0.257 0-0.449 0.042-0.575 0.125-0.11 0.069-0.182 0.189-0.182 0.326 0 0.001 0 0.003 0 0.004v-0c0 0.137 0.070 0.239 0.21 0.307 0.144 0.064 0.363 0.129 0.654 0.193 0.304 0.072 0.552 0.144 0.745 0.216s0.358 0.186 0.495 0.341c0.141 0.156 0.21 0.366 0.21 0.631 0 0.228-0.064 0.436-0.193 0.626-0.125 0.186-0.314 0.334-0.569 0.444s-0.563 0.165-0.927 0.165zM32.463 26.596v3.982h-0.922v-1.633h-1.81v1.633h-0.922v-3.982h0.922v1.57h1.809v-1.57h0.922z"></path>
<path fill="#111518" style="fill: var(--color4, #111518)" d="M40.148 29.838v0.74h-3.085v-3.982h3.009v0.74h-2.092v0.865h1.849v0.717h-1.849v0.922h2.168zM45.557 26.596v3.982h-0.757l-1.985-2.418v2.418h-0.91v-3.982h0.762l1.98 2.418v-2.418h0.91zM50.214 28.524h0.842v1.616c-0.216 0.164-0.467 0.288-0.751 0.375s-0.571 0.131-0.859 0.131c-0.011 0-0.024 0-0.037 0-0.394 0-0.765-0.097-1.091-0.268l0.013 0.006c-0.324-0.174-0.588-0.423-0.774-0.725l-0.005-0.009c-0.175-0.296-0.279-0.653-0.279-1.033 0-0.011 0-0.021 0-0.032l-0 0.002c0-0.395 0.092-0.747 0.279-1.058 0.19-0.313 0.457-0.563 0.774-0.729l0.011-0.005c0.334-0.178 0.709-0.267 1.126-0.267 0.348 0 0.666 0.059 0.95 0.176s0.523 0.288 0.717 0.512l-0.592 0.546c-0.251-0.277-0.612-0.45-1.014-0.45-0.006 0-0.011 0-0.017 0h0.001c-0.255 0-0.48 0.053-0.677 0.159s-0.351 0.256-0.461 0.449c-0.104 0.185-0.165 0.405-0.165 0.64 0 0.009 0 0.018 0 0.027l-0-0.001c0 0.247 0.055 0.466 0.165 0.66s0.262 0.345 0.455 0.455c0.197 0.107 0.421 0.159 0.671 0.159 0.007 0 0.015 0 0.023 0 0.254 0 0.492-0.063 0.702-0.175l-0.008 0.004v-1.166zM52.937 26.596h0.922v3.231h1.997v0.751h-2.92v-3.982zM57.394 26.596h0.922v3.982h-0.922v-3.982zM61.593 30.646c-0.315 0-0.62-0.042-0.916-0.125-0.292-0.087-0.528-0.199-0.705-0.336l0.313-0.694c0.171 0.125 0.373 0.225 0.609 0.302s0.47 0.114 0.705 0.114c0.262 0 0.455-0.038 0.58-0.114 0.125-0.080 0.188-0.184 0.188-0.313 0-0.001 0-0.003 0-0.005 0-0.093-0.044-0.176-0.113-0.228l-0.001-0c-0.080-0.068-0.175-0.121-0.279-0.152l-0.005-0.001c-0.115-0.039-0.272-0.082-0.431-0.118l-0.036-0.007c-0.299-0.068-0.548-0.142-0.79-0.231l0.045 0.014c-0.199-0.076-0.368-0.194-0.499-0.346l-0.001-0.001c-0.137-0.159-0.205-0.372-0.205-0.637 0-0.231 0.063-0.44 0.188-0.626 0.125-0.19 0.313-0.339 0.563-0.449 0.254-0.11 0.563-0.165 0.927-0.165 0.254 0 0.502 0.031 0.745 0.091s0.455 0.148 0.637 0.262l-0.284 0.7c-0.368-0.208-0.736-0.313-1.104-0.313-0.258 0-0.449 0.042-0.575 0.125-0.11 0.069-0.182 0.189-0.182 0.327 0 0.001 0 0.002 0 0.004v-0c0 0.137 0.070 0.239 0.211 0.307 0.144 0.064 0.362 0.129 0.654 0.193 0.303 0.072 0.552 0.144 0.745 0.216s0.358 0.186 0.495 0.341c0.14 0.156 0.211 0.366 0.211 0.631 0 0.228-0.065 0.436-0.193 0.626-0.125 0.186-0.315 0.334-0.569 0.444s-0.563 0.165-0.927 0.165zM68.588 26.596v3.982h-0.922v-1.633h-1.809v1.633h-0.922v-3.982h0.922v1.57h1.809v-1.57h0.922zM74.263 14.949v2.829h-10.391v-12.942h10.15v2.829h-6.527v2.182h5.75v2.736h-5.75v2.367h6.767zM89.348 4.836v12.942h-3.014l-5.713-6.896v6.896h-3.587v-12.942h3.014l5.713 6.896v-6.896h3.587z"></path>
<path fill="#ff6b09" style="fill: var(--color1, #ff6b09)" d="M58.695 11.062c-0.189-0.424-0.45-0.841-0.831-1.323-0.961-1.209-1.255-3.904-1.259-3.93-0.015-0.13-0.103-0.235-0.222-0.274l-0.002-0.001c-0.030-0.010-0.064-0.015-0.099-0.015-0.097 0-0.185 0.042-0.245 0.109l-0 0c-1.148 1.283-0.665 3.264-0.405 4.056 0.072 0.217 0.15 0.472 0.206 0.73 0.423 2.091-0.395 3.039-0.587 3.229-0.186 0.052-0.313 0.026-0.43-0.1-0.404-0.443-0.538-1.894-0.348-3.785 0.015-0.129 0.024-0.279 0.024-0.431 0-0.22-0.018-0.435-0.054-0.645l0.003 0.023c-0.398-2.324-1.86-3.815-2.233-4.338-1.023-1.513-1.127-4.031-1.131-4.053-0.007-0.174-0.15-0.312-0.325-0.312-0.068 0-0.132 0.021-0.184 0.057l0.001-0.001c-1.708 1.161-1.561 3.957-1.323 5.518 0.055 0.362 0.162 0.73 0.348 1.196 0.661 1.664-0.131 3.814-0.137 3.833s-0.013 0.036-0.016 0.055c-0.101 0.53-0.27 0.846-0.459 0.846-0.022-0-0.043-0.004-0.063-0.010l0.002 0c-0.232-0.048-0.352-0.294-0.356-0.507-0.013-2.758-2.78-3.685-2.809-3.695-0.030-0.010-0.064-0.016-0.1-0.016-0.098 0-0.186 0.043-0.245 0.112l-0 0c-0.050 0.056-0.081 0.13-0.081 0.212 0 0.053 0.013 0.102 0.035 0.146l-0.001-0.002c0.033 0.068 0.137 0.366 0.065 1.416-0.068 1.014-0.25 1.959-0.535 2.859l0.023-0.085c-0.658 2.147-0.554 4.18-0.548 4.277 0.506 5.505 8.424 6.47 13.122 3.368 0.515-0.339 0.935-0.727 1.244-1.153 1.735-2.392 0.715-5.641-0.045-7.367zM46.652 16.32c0 0.005 0 0.011 0 0.017 0 0.172-0.135 0.313-0.305 0.322l-0.001 0h-0.020c-0.001 0-0.001 0-0.002 0-0.172 0-0.312-0.134-0.324-0.303l-0-0.001c-0.030-0.472-0.023-0.967 0.013-1.503 0.015-0.169 0.156-0.301 0.328-0.301 0.007 0 0.014 0 0.021 0.001l-0.001-0c0.17 0.012 0.304 0.153 0.304 0.325 0 0.007-0 0.014-0.001 0.022l0-0.001c-0.036 0.511-0.043 0.976-0.014 1.422zM46.812 13.456c-0.020 0.161-0.156 0.284-0.321 0.284-0.001 0-0.001 0-0.002 0h0c-0.013 0-0.026 0-0.043-0.004-0.161-0.021-0.285-0.158-0.285-0.324 0-0.012 0.001-0.024 0.002-0.036l-0 0.001 0.156-1.248c0.023-0.161 0.16-0.283 0.326-0.283 0.014 0 0.027 0.001 0.040 0.002l-0.002-0c0.179 0.023 0.306 0.184 0.284 0.362l-0.156 1.244zM56.491 4.422c-0.157-0.024-0.277-0.158-0.277-0.32 0-0.017 0.001-0.034 0.004-0.050l-0 0.002c0.021-0.132 0.138-0.804 0.458-1.142 0.060-0.063 0.144-0.102 0.238-0.102 0.086 0 0.165 0.034 0.223 0.088l-0-0c0.131 0.122 0.138 0.326 0.014 0.457-0.135 0.143-0.25 0.553-0.289 0.798-0.026 0.156-0.16 0.274-0.322 0.274-0.018 0-0.035-0.001-0.052-0.004l0.002 0zM44.608 6.032c-0.063-0.24-0.218-0.637-0.366-0.767-0.068-0.059-0.111-0.146-0.111-0.243 0-0.082 0.031-0.156 0.081-0.213l-0 0c0.060-0.068 0.148-0.11 0.245-0.11 0.083 0 0.158 0.031 0.215 0.081l-0-0c0.351 0.305 0.535 0.963 0.568 1.092 0.006 0.024 0.010 0.052 0.010 0.080 0 0.151-0.103 0.277-0.242 0.313l-0.002 0c-0.024 0.006-0.052 0.010-0.081 0.010-0.151 0-0.277-0.102-0.316-0.24l-0.001-0.002z"></path>
</symbol>
<symbol id="training-copyright" viewBox="0 0 27 32">
<path fill="#" style="" d="M-0.102 31.759h26.785c0.132-3.055-0.087-8.123-1.965-10.535l-0.068-0.087-4.103-2.060c0.089-0.301 0.133-0.576 0.151-0.779 0.020-0.243-0.013-0.471-0.1-0.678-0.677-1.62-2.11-2.472-2.898-2.835 0.24-0.484 0.395-1.003 0.47-1.534 0.456-0.131 0.805-0.489 0.921-0.942l0.002-0.009 0.479-1.947c0.025-0.096 0.040-0.207 0.040-0.32 0-0.252-0.071-0.487-0.194-0.687l0.003 0.006c-0.081-0.13-0.178-0.24-0.292-0.332l-0.002-0.002c1.351-3.068-0.911-5.96-1.035-6.113-2.45-2.648-5.545-2.153-5.708-2.123-4.467 0.935-6.19 4.358-5.217 8.372-0.212 0.233-0.341 0.544-0.341 0.885 0 0.112 0.014 0.221 0.040 0.325l-0.002-0.009 0.481 1.949c0.117 0.468 0.473 0.82 0.916 0.947 0.142 0.989 0.554 1.863 1.158 2.567l-0.006-0.007v1.543c-6.409 3.282-2.348 1.188-7.484 3.787-0.010 0.048-2.41 2.599-2.053 10.158l0.022 0.462zM25.751 30.789h-4.408v-1.852l2.915-6.675c1.461 2.425 1.515 7.053 1.493 8.527zM19.735 18.216c-0.17 1.955-1.242 1.364-1.903 2.869-0.52-0.572-0.677-1.258-0.537-1.993 0.253-1.349-0.57-1.749-0.367-3.166l0.031-0.032v-0.005c0.017-0.020 0.18-0.213 0.227-0.274 1.745 0.76 2.584 2.174 2.55 2.6zM10.379 16.681c0.793 0.559 1.778 0.894 2.842 0.894 1.017 0 1.963-0.306 2.75-0.831l-0.018 0.011c0.112 1.113 0.547 1.337 0.393 2.157-0.025 0.128-0.044 0.283-0.054 0.44l-0 0.010-3.003 3.383-3.837-4.327 0.927-0.483v-1.254zM9.172 12.539v-5.172c0.467-0.864 1.104-1.491 1.896-1.867 2.12 1.2 4.56 2.99 6.197 4.792-0.001 2.294 0.007 2.3-0.009 2.489l-0.001 0.012c-0.127 2.084-1.84 3.811-4.037 3.811-2.136 0-3.909-1.677-4.037-3.831-0.005-0.063-0.008-0.136-0.008-0.21 0-0.008 0-0.016 0-0.024v0.001zM8.574 18.886l4.716 5.317 3.167-3.569c0.072 0.209 0.173 0.405 0.29 0.596l-3.457 4.322-5.153-6.446 0.437-0.22zM18.231 11.759v-1.498l0.36-0.413c0.020 0.759 0.101-0.136-0.36 1.911zM12.562 1.733c0.191 0.012 2.765-0.391 4.799 1.805 0.080 0.1 1.736 2.233 1.071 4.567-0.227-1.039-0.624-2.369-1.251-3.004l-0.685 0.683c0.619 0.627 1.025 2.537 1.18 3.527-2.84-2.972-6.504-4.853-6.554-4.885-0.184 0.114-1.735 0.409-2.86 2.598l-0.054 0.104v1.608l-0.142 0.001c-0.716-3.455 0.655-6.199 4.497-7.004zM7.963 9.735l0.244 0.987v1.038l-0.405-1.64c-0.059-0.244 0.121-0.337 0.161-0.385zM7.253 19.55l6.037 7.551 4.085-5.109c0.444 0.398 0.658 0.454 1.6 0.939l-0.318-1.078c-0.080-0.273 0.239-0.713 0.431-0.914 0.434-0.238 0.79-0.568 1.051-0.966l0.007-0.011 3.333 1.673-3.101 7.1v2.055h-14.177v-2.056l-3.102-7.099 4.153-2.085zM2.321 22.265l2.916 6.673v1.851h-4.409c-0.023-1.473 0.032-6.1 1.492-8.525z"></path>
</symbol>
<symbol id="the-habit" viewBox="0 0 45 32">
<path fill="" style="" d="M20.020 4.608h-13.474v1.021h13.474v-1.021zM20.020 8.415h-11.456v1.021h11.456v-1.021zM20.020 12.224h-13.474v1.021h13.474v-1.021zM20.020 16.032h-11.456v1.021h11.456v-1.020zM20.020 19.84h-13.474v1.021h13.474v-1.021zM20.020 23.647h-11.456v1.021h11.456v-1.021zM38.515 4.608h-13.473v1.021h13.473v-1.021zM36.497 8.415h-11.455v1.021h11.455v-1.021zM38.515 12.224h-13.473v1.021h13.473v-1.021zM36.497 16.032h-11.455v1.021h11.455v-1.020zM38.515 19.84h-13.473v1.021h13.473v-1.021zM36.497 23.647h-11.455v1.021h11.455v-1.021z"></path>
<path fill="" style="" d="M43.38 3.446h-1.849v-2.813c0-0.001 0-0.002 0-0.003 0-0.279-0.226-0.506-0.505-0.507h-15.079c-0.002 0-0.005 0-0.007 0-1.459 0-2.731 0.803-3.398 1.991l-0.010 0.020c-0.677-1.208-1.949-2.011-3.409-2.011-0.003 0-0.006 0-0.009 0h-15.079c-0.279 0.002-0.504 0.228-0.504 0.507 0 0.001 0 0.002 0 0.003v-0 2.813h-1.849c-0.279 0.002-0.504 0.228-0.504 0.507 0 0.001 0 0.002 0 0.003v-0 27.411c0 0.282 0.226 0.511 0.504 0.511h41.698c0.279 0 0.505-0.229 0.505-0.511v-27.411c0-0.001 0-0.002 0-0.003 0-0.279-0.225-0.506-0.504-0.507h-0zM25.946 1.143h14.574v27.35h-15.65c-0.694 0-1.387 0.297-1.836 0.68v-25.089c0-1.63 1.289-2.941 2.913-2.941zM4.539 1.143h14.574c1.577 0 2.854 1.243 2.906 2.829 0 0.022 0.003 0.091 0.007 0.112v25.088c-0.448-0.383-1.134-0.679-1.83-0.679h-15.657v-27.35zM2.186 4.467h1.345v24.538c0 0.282 0.225 0.511 0.504 0.511h16.161c0.769 0 1.512 0.511 1.75 1.341h-19.762v-26.39zM42.875 30.857h-19.761c0.219-0.778 0.922-1.34 1.757-1.341h16.154c0.279 0 0.505-0.229 0.505-0.511v-24.539h1.345v26.39z"></path>
</symbol>
<symbol id="psychological-support" viewBox="0 0 33 32">
<path fill="" style="" d="M1.993 12.558v2.831c0 0.152 0.069 0.295 0.189 0.39 1.864 1.471 4.247 2.36 6.837 2.362h0c0.74 0 1.481-0.077 2.207-0.224 1.433 0.652 3.109 1.032 4.873 1.032 0.006 0 0.012 0 0.018 0h-0.001c1.707 0 3.351-0.349 4.891-1.032 3.091 0.625 6.384-0.046 9.042-2.138 0.116-0.092 0.189-0.232 0.189-0.39v0-2.831c0-0.415-0.207-0.794-0.575-1.027l-3.867-2.176c0.845-1.073 1.476-2.602 1.585-3.913 0.321-2.256-1.518-4.646-4.165-4.646-1.113 0-2.171 0.459-2.948 1.227-0.027 0.027-0.057 0.049-0.083 0.077-0.024 0.025-0.043 0.054-0.067 0.080-0.015 0.017-0.029 0.035-0.045 0.053-0.756-1.381-2.211-2.233-3.924-2.233-0.167 0-0.33 0.011-0.492 0.028-0.010-0.001-0.018-0.006-0.028-0.006-0.092 0-0.287 0.025-0.391 0.055-0.015 0.004-0.027 0.015-0.041 0.021-1.296 0.262-2.369 1.054-3.002 2.135l-0.011 0.021c-0.77-0.894-1.904-1.457-3.169-1.457-0.003 0-0.006 0-0.010 0h0.001c-3.909 0-5.642 4.612-2.557 8.581l-3.903 2.167c-0.347 0.219-0.553 0.599-0.553 1.014zM20.996 16.828c-0.084 0.041-0.167 0.085-0.251 0.123l-0.002 0.001c-1.349 0.635-2.929 1.006-4.596 1.006-0.011 0-0.021 0-0.032-0h0.002c-0.007 0-0.016 0-0.025 0-2.509 0-4.823-0.837-6.677-2.248l0.027 0.020v-2.87c0-0.097 0.047-0.184 0.102-0.221l4.542-2.525c0.565 0.48 1.287 0.832 2.035 0.832 0.721 0 1.499-0.357 2.053-0.843l4.487 2.52c0.083 0.053 0.131 0.139 0.131 0.237v2.87c-0.52 0.395-1.108 0.76-1.729 1.069l-0.064 0.029zM29.154 12.381c0.056 0.037 0.092 0.099 0.092 0.169 0 0.003-0 0.005-0 0.008v-0 2.587c-1.969 1.477-4.337 2.148-6.737 1.98 0.419-0.265 0.772-0.515 1.112-0.782l-0.028 0.022c0.116-0.092 0.189-0.232 0.189-0.39 0-0 0-0 0-0v0-3.115c0-0.435-0.218-0.835-0.61-1.087l-2.383-1.339 0.58-0.321c0.703 0.573 1.307 0.744 1.848 0.744 0.663 0 1.36-0.325 1.878-0.759l4.060 2.284zM23.216 1.788c1.38 0 2.593 0.902 3.021 2.142-0.889-0.115-1.664-0.531-2.235-1.14l-0.002-0.002c-0.091-0.097-0.22-0.158-0.363-0.158-0.18 0-0.338 0.096-0.425 0.24l-0.001 0.002c-0.546 0.916-1.456 1.567-2.525 1.757l-0.022 0.003v-0.003c0-0.024 0.001-0.051 0.001-0.079 0-0.202-0.012-0.402-0.036-0.598l0.002 0.023-0.007-0.066c-0.034-0.24-0.077-0.446-0.131-0.647l0.009 0.038c0.563-0.902 1.609-1.513 2.713-1.513zM20.556 5.643c1.291-0.143 2.407-0.797 3.156-1.751l0.008-0.010c0.767 0.629 1.74 1.010 2.702 1.056-0.007 1.792-1.471 4.927-3.207 4.927-1.337 0-2.478-1.912-2.905-3.238 0.108-0.341 0.187-0.669 0.245-0.983zM20.656 9.373l-0.885 0.491-0.895-0.503c0.331-0.413 0.636-0.893 0.896-1.413 0.251 0.527 0.551 1.010 0.885 1.425zM19.32 6.465c-0.478 1.427-1.705 3.49-3.199 3.49-1.742 0-3.225-2.864-3.508-4.696 0.075-0.019 2.429 0.127 4.049-2.001 0.822 0.688 1.931 1.143 3.011 1.188 0.013 0.647-0.144 1.407-0.352 2.019zM16.15 0.991c2.78 0 3.309 2.393 3.353 2.443-1.017-0.113-1.908-0.58-2.561-1.274l-0.002-0.002c-0.091-0.097-0.219-0.157-0.362-0.157-0.181 0-0.339 0.097-0.426 0.242l-0.001 0.002c-0.72 1.218-2.026 2.022-3.52 2.022-0.021 0-0.042-0-0.063-0l0.003 0c0.136-1.822 1.596-3.274 3.58-3.274zM12.461 7.938c0.257 0.515 0.563 1.007 0.913 1.439l-0.876 0.487-0.907-0.51c0.344-0.439 0.636-0.929 0.869-1.415zM9.007 1.788c1.124 0 2.155 0.571 2.729 1.514-0.029 0.1-0.107 0.498-0.117 0.548-0.723-0.179-1.342-0.552-1.818-1.061l-0.002-0.002c-0.091-0.097-0.219-0.157-0.362-0.157-0.181 0-0.339 0.097-0.425 0.242l-0.001 0.002c-0.657 1.090-1.832 1.81-3.177 1.815h-0.001c0.158-1.627 1.518-2.9 3.173-2.9zM5.875 5.677c1.475-0.018 2.784-0.712 3.635-1.786l0.007-0.010c0.57 0.468 1.264 0.806 2.026 0.956l0.029 0.005c0.029 0.575 0.179 1.273 0.351 1.789-0.274 0.84-0.799 1.84-1.451 2.505-0.005 0.004-0.010 0.006-0.013 0.010-0.408 0.43-0.989 0.719-1.445 0.719-1.593 0-2.841-2.508-3.14-4.188zM2.985 12.558c0-0.075 0.033-0.139 0.067-0.162l4.117-2.284c0.247 0.206 0.303 0.229 0.353 0.265 0.484 0.323 0.928 0.483 1.533 0.483 0.645 0 1.233-0.273 1.749-0.694 0.029-0.023 0.061-0.045 0.089-0.068l0.587 0.33-2.446 1.361c-0.353 0.229-0.584 0.622-0.584 1.069 0 0.001 0 0.002 0 0.003v-0 3.115c0 0.152 0.070 0.295 0.19 0.389 0.317 0.249 0.727 0.539 1.083 0.761-2.435 0.167-4.803-0.528-6.737-1.98v-2.587z"></path>
<path fill="" style="" d="M31.259 20.781c-0.312-0.2-0.693-0.319-1.102-0.319-0.329 0-0.641 0.077-0.917 0.215l0.012-0.005-6.12 2.956c-0.022-1.147-0.956-2.069-2.106-2.071l-3.51 0.001c-1.73-1.504-3.941-2.425-5.952-2.473-1.983-0.047-3.762-0.060-4.592-0.064v-1.002h-6.972v11.517h6.972v-1.379c1.911 1.097 6.939 3.845 9.325 3.845 0.053 0 0.107-0.001 0.157-0.004 4.196-0.235 14.091-7.199 14.743-7.661 0.622-0.367 1.033-1.033 1.034-1.795v-0c0-0.002 0-0.004 0-0.006 0-0.736-0.385-1.382-0.965-1.747l-0.009-0.005zM5.98 28.543h-4.988v-9.533h4.988v9.533zM30.687 23.485c-0.017 0.009-0.031 0.018-0.044 0.028l0.001-0.001c-0.103 0.073-10.281 7.271-14.245 7.493-0.035 0.002-0.077 0.003-0.12 0.003h-0c-2.093 0-7.195-2.753-9.307-4.001v-6.997c0.827 0.003 2.596 0.017 4.569 0.064 1.837 0.044 3.876 0.921 5.455 2.345l0.141 0.128 3.888-0.001c0.618 0.001 1.118 0.501 1.119 1.119v0c-0 0.618-0.501 1.119-1.119 1.119h-7.142v0.992h7.142c0.685 0 1.288-0.333 1.673-0.84l6.984-3.373c0.138-0.070 0.301-0.112 0.474-0.112 0.214 0 0.413 0.063 0.579 0.172l-0.004-0.003c0.323 0.202 0.508 0.537 0.508 0.918-0.001 0.404-0.221 0.756-0.548 0.943l-0.005 0.003zM16.611 12.159h-0.991v0.919h0.991v-0.92zM16.611 13.992h-0.991v0.92h0.991v-0.92zM16.611 15.827h-0.991v0.919h0.991v-0.92z"></path>
</symbol>
<symbol id="phone-in-footer" viewBox="0 0 33 32">
<path fill="#ff6b09" style="fill: var(--color1, #ff6b09)" d="M4.818 0.002c-0.572 0.026-1.080 0.279-1.439 0.672l-0.001 0.002-2.685 2.953c0.004-0.009-0.011-0.008-0.086 0.099-0.039 0.053-0.071 0.113-0.092 0.179l-0.001 0.005c-1.092 3.48-0.36 7.308 1.423 10.948 1.785 3.641 4.63 7.125 7.897 9.984 3.266 2.859 6.953 5.096 10.467 6.206 3.516 1.109 6.923 1.095 9.449-0.737 0.029-0.021 0.054-0.043 0.077-0.067l0-0c0.066-0.066 0.068-0.075 0.057-0.065l2.681-2.95c0.333-0.369 0.537-0.86 0.537-1.399 0-0.608-0.26-1.156-0.675-1.538l-6.337-5.765c-0.369-0.334-0.86-0.538-1.4-0.538-0.608 0-1.156 0.26-1.538 0.674l-2.868 3.154c-2.328-0.673-4.318-1.816-6.231-3.556-1.913-1.741-3.24-3.615-4.13-5.869l2.866-3.153c0.334-0.369 0.538-0.861 0.538-1.4 0-0.608-0.259-1.155-0.674-1.537l-6.339-5.766c-0.367-0.334-0.856-0.538-1.394-0.538-0.037 0-0.074 0.001-0.11 0.003l0.005-0zM4.877 1.295c0.009-0 0.019-0.001 0.030-0.001 0.205 0 0.392 0.080 0.53 0.21l-0-0 6.337 5.763c0.16 0.14 0.26 0.345 0.26 0.573 0 0.203-0.079 0.387-0.209 0.524l0-0-3.169 3.482c-0.104 0.115-0.168 0.268-0.168 0.436 0 0.081 0.015 0.158 0.041 0.229l-0.001-0.005c0.961 2.624 2.513 4.778 4.647 6.719 2.135 1.942 4.423 3.283 7.126 3.992 0.050 0.014 0.107 0.021 0.166 0.021 0.191 0 0.362-0.082 0.482-0.213l0-0.001 3.169-3.482c0.14-0.16 0.345-0.26 0.573-0.26 0.203 0 0.387 0.079 0.524 0.209l6.338 5.763c0.16 0.14 0.26 0.345 0.26 0.573 0 0.203-0.080 0.388-0.209 0.524l0-0-2.649 2.913c-2.072 1.486-4.992 1.57-8.262 0.537-3.283-1.036-6.846-3.182-9.999-5.942s-5.898-6.131-7.585-9.574c-1.67-3.407-2.275-6.852-1.357-9.888l2.589-2.845c0.133-0.15 0.323-0.247 0.535-0.259l0.002-0z"></path>
</symbol>
<symbol id="modern-teach-advantages" viewBox="0 0 31 32">
<path fill="" style="fill: var(--color1, #ff6b09)" d="M20.406 8.558h-7.116c-0.464 0.001-0.839 0.376-0.84 0.84v2.946l-5.286 2.219c-0.063 0.027-0.106 0.088-0.106 0.159 0 0.062 0.033 0.117 0.083 0.147l0.001 0 0.674 0.403v4.3c-0.348 0.082-0.603 0.389-0.603 0.756v0.415c0 0.095 0.077 0.172 0.172 0.172h1.207c0.095 0 0.172-0.077 0.172-0.172v0-0.414c0-0.369-0.259-0.677-0.604-0.756v-4.094l0.533 0.319c-0.016 0.123-0.002-0.214-0.008 2.002 0 0.729 1.866 1.119 3.765 1.141v3.356c0 0.463 0.376 0.839 0.839 0.839 0 0 0 0 0.001 0h7.116c0.463-0.001 0.839-0.376 0.839-0.839v-0c0 0.023-0.001-0.711 0-12.898 0-0.457-0.378-0.84-0.839-0.84zM8.42 20.328v0.242h-0.863v-0.242c0-0.238 0.193-0.433 0.43-0.433 0.238 0 0.433 0.194 0.433 0.433zM20.406 22.79h-7.116c-0.171 0-0.322-0.086-0.411-0.218-0.053-0.077-0.085-0.173-0.085-0.276 0-0 0-0.001 0-0.001v0-1.163h8.105v1.164c0 0.27-0.225 0.494-0.494 0.494zM20.9 20.788h-8.105v-1.847c0.927-0.010 3.767-0.215 3.767-1.142-0.001-1.392 0.002-1.957-0.004-2.005l1.546-0.926c0.050-0.031 0.083-0.085 0.083-0.148 0-0.071-0.043-0.132-0.104-0.158l-0.001-0-5.286-2.219v-1.438h8.105v9.883zM12.622 16.656c-0.955 0-2.794 0.123-3.592 0.645 0.005-1.595-0.055-1.491 0.141-1.627 0.496-0.365 1.915-0.62 3.451-0.62 0.67 0 3.595 0.184 3.595 0.803v1.444c-0.806-0.526-2.636-0.645-3.595-0.645zM12.795 9.398c0-0.273 0.222-0.495 0.495-0.495h7.116c0.273 0 0.494 0.225 0.494 0.495v1.163h-8.105v-1.163zM12.622 12.644l5.012 2.104-1.242 0.743c-0.66-0.655-2.844-0.782-3.77-0.782s-3.111 0.127-3.77 0.782l-1.242-0.743 5.012-2.104zM9.030 17.799c0-0.279 1.234-0.799 3.592-0.799 2.36 0 3.595 0.52 3.595 0.799s-1.234 0.799-3.595 0.799c-2.358 0-3.592-0.52-3.592-0.799z"></path>
<path fill="" style="fill: var(--color1, #ff6b09)" d="M16.848 21.392c-0.314 0-0.569 0.255-0.569 0.569s0.255 0.57 0.569 0.57 0.569-0.255 0.569-0.57c0-0.314-0.255-0.569-0.569-0.569zM16.848 22.186c-0.118-0.008-0.211-0.106-0.211-0.225s0.093-0.217 0.21-0.225l0.001-0c0.121 0.005 0.217 0.104 0.217 0.225s-0.096 0.22-0.216 0.225h-0zM17.505 9.56h-1.314v0.344h1.314v-0.344z"></path>
<path fill="none" stroke="#ff6b09" style="stroke: var(--color1, #ff6b09)" stroke-linejoin="miter" stroke-linecap="butt" stroke-miterlimit="4" stroke-width="0.6154" d="M31.077 4.615v-4.308h-30.769v31.385h30.769v-4.308"></path>
</symbol>
<symbol id="vk" viewBox="0 0 32 32">
<path fill="" style="" d="M27.541 18.46c1.060 1.037 2.181 2.012 3.133 3.153 0.421 0.507 0.819 1.029 1.123 1.618 0.432 0.836 0.042 1.757-0.709 1.807l-4.661-0.002c-1.202 0.099-2.161-0.384-2.969-1.206-0.645-0.658-1.243-1.358-1.863-2.037-0.246-0.281-0.521-0.527-0.824-0.736l-0.015-0.010c-0.637-0.413-1.189-0.287-1.553 0.378-0.37 0.675-0.454 1.422-0.491 2.175-0.050 1.098-0.382 1.387-1.485 1.437-2.356 0.111-4.593-0.245-6.67-1.435-1.833-1.049-3.253-2.528-4.489-4.203-2.407-3.26-4.251-6.844-5.907-10.529-0.373-0.83-0.1-1.276 0.815-1.292 1.521-0.030 3.042-0.028 4.564-0.002 0.619 0.009 1.027 0.363 1.266 0.947 0.822 2.023 1.829 3.949 3.093 5.732 0.336 0.476 0.679 0.949 1.168 1.284 0.541 0.37 0.953 0.247 1.206-0.354 0.162-0.382 0.233-0.794 0.269-1.202 0.121-1.408 0.137-2.812-0.075-4.213-0.13-0.876-0.623-1.442-1.495-1.607-0.446-0.085-0.38-0.251-0.164-0.505 0.374-0.439 0.727-0.713 1.429-0.713h5.269c0.829 0.164 1.013 0.537 1.127 1.372l0.004 5.852c-0.010 0.323 0.161 1.282 0.743 1.495 0.465 0.153 0.772-0.22 1.052-0.515 1.262-1.339 2.162-2.922 2.965-4.56 0.357-0.72 0.665-1.468 0.962-2.215 0.221-0.555 0.565-0.828 1.191-0.816l5.070 0.004c0.151 0 0.303 0.002 0.448 0.028 0.855 0.145 1.089 0.512 0.826 1.347-0.416 1.309-1.225 2.4-2.016 3.497-0.846 1.169-1.749 2.3-2.589 3.477-0.77 1.074-0.709 1.616 0.247 2.549z"></path>
</symbol>
<symbol id="wave-hero" viewBox="0 0 58 32">
<path fill="" style="" d="M8.124 27.635c-3.44 0.363-5.894 2.421-8.124 2.732v-30.367h58.371v16.688c-1.646-0.387-8.089 6.081-11.754 7.384-5.393 0.882-2.091-3.424-14.709 2.68s-19.727 0.454-23.784 0.882z"></path>
</symbol>
<symbol id="Rectangle-11-1" viewBox="0 0 34 32">
<path fill="" style="" d="M4.267 0h25.6c2.356 0 4.267 1.91 4.267 4.267v23.467c0 2.356-1.91 4.267-4.267 4.267h-25.6c-2.356 0-4.267-1.91-4.267-4.267v-23.467c0-2.356 1.91-4.267 4.267-4.267z"></path>
</symbol>
<symbol id="Vector-1" viewBox="0 0 42 32">
<path fill="" style="" stroke="#fff" stroke-linejoin="miter" stroke-linecap="butt" stroke-miterlimit="4" stroke-width="0.64" d="M6.263 15.205l-0.22-0.21-3.307 3.132 11.651 11.114 24.477-23.351-3.285-3.134-21.192 20.197-8.124-7.75z"></path>
</symbol>
<symbol id="icon-fire-background" viewBox="0 0 28 32">
<path d="M28.799 21.831c-0.373-0.836-0.887-1.659-1.639-2.609-1.896-2.386-2.474-7.706-2.481-7.757-0.026-0.255-0.206-0.466-0.443-0.542-0.244-0.077-0.508-0.006-0.681 0.185-2.262 2.533-1.311 6.443-0.797 8.006 0.141 0.427 0.296 0.931 0.405 1.442 0.835 4.127-0.778 5.996-1.157 6.373-0.366 0.102-0.617 0.051-0.848-0.198-0.797-0.874-1.060-3.738-0.688-7.47 0.077-0.759 0.058-1.442-0.051-2.080-0.786-4.587-3.668-7.529-4.402-8.561-2.018-2.985-2.224-7.955-2.23-7.999-0.006-0.236-0.141-0.447-0.353-0.549-0.206-0.102-0.456-0.089-0.649 0.045-3.368 2.29-3.078 7.808-2.609 10.889 0.109 0.714 0.321 1.442 0.688 2.36 1.305 3.285-0.257 7.527-0.27 7.566s-0.026 0.070-0.032 0.108c-0.199 1.046-0.533 1.671-0.906 1.671-0.039 0-0.077-0.006-0.122-0.019-0.456-0.096-0.694-0.581-0.7-1.002-0.026-5.441-5.482-7.272-5.54-7.291-0.244-0.077-0.514-0.006-0.681 0.191-0.174 0.198-0.206 0.472-0.090 0.702 0.064 0.134 0.27 0.721 0.129 2.794-0.122 1.863-0.463 3.706-1.009 5.473-1.298 4.236-1.093 8.248-1.080 8.439 0.998 10.864 16.609 12.768 25.873 6.647 1.015-0.67 1.844-1.435 2.455-2.277 3.419-4.721 1.407-11.131-0.090-14.538zM5.053 32.21c0.019 0.351-0.251 0.651-0.604 0.67h-0.039c-0.341 0-0.623-0.262-0.643-0.6-0.058-0.931-0.045-1.907 0.026-2.966 0.026-0.351 0.334-0.612 0.688-0.593 0.353 0.026 0.623 0.332 0.598 0.683-0.071 1.008-0.084 1.927-0.026 2.807zM5.368 26.558c-0.039 0.325-0.315 0.561-0.636 0.561-0.026 0-0.051 0-0.084-0.006-0.347-0.045-0.598-0.357-0.559-0.708l0.308-2.462c0.045-0.344 0.36-0.593 0.72-0.555 0.353 0.045 0.604 0.364 0.559 0.714l-0.308 2.456z"></path>
<path d="M24.451 8.727c-0.351-0.054-0.591-0.379-0.537-0.727 0.040-0.259 0.272-1.586 0.902-2.253 0.243-0.257 0.649-0.271 0.908-0.029 0.259 0.241 0.272 0.644 0.029 0.902-0.267 0.283-0.494 1.091-0.57 1.575-0.054 0.344-0.378 0.586-0.733 0.533z"></path>
<path d="M1.023 11.905c-0.123-0.474-0.429-1.257-0.722-1.512-0.267-0.232-0.294-0.635-0.060-0.9s0.639-0.292 0.907-0.059c0.693 0.603 1.054 1.901 1.12 2.154 0.088 0.341-0.119 0.688-0.462 0.776-0.351 0.088-0.695-0.123-0.783-0.459z"></path>
</symbol>
</defs>
</svg>
